<?xml version="1.0" encoding="UTF-8" standalone="yes"?><svg xmlns="http://www.w3.org/2000/svg" xmlns:xlink="http://www.w3.org/1999/xlink" height="542pt" style="width:833px;height:542px;" version="1.1" viewBox="0 0 833 542" width="833pt"><defs><filter height="300%" id="f1" width="300%" x="-1" y="-1"><feGaussianBlur result="blurOut" stdDeviation="2.0"/><feColorMatrix in="blurOut" result="blurOut2" type="matrix" values="0 0 0 0 0 0 0 0 0 0 0 0 0 0 0 0 0 0 .4 0"/><feOffset dx="4.0" dy="4.0" in="blurOut2" result="blurOut3"/><feBlend in="SourceGraphic" in2="blurOut3" mode="normal"/></filter></defs><g><rect fill="#FEFECE" filter="url(#f1)" height="138.6855" style="stroke: #A80036; stroke-width: 1.5;" width="136" x="444.25" y="8.5"/><ellipse cx="475.9" cy="24.5" fill="#ADD1B2" rx="11" ry="11" style="stroke: #A80036; stroke-width: 1.0;"/><path d="M478.8731,30.1431 Q478.2921,30.4419 477.6529,30.5913 Q477.0138,30.7407 476.3082,30.7407 Q473.8014,30.7407 472.4815,29.0889 Q471.1617,27.437 471.1617,24.3159 Q471.1617,21.1865 472.4815,19.5347 Q473.8014,17.8828 476.3082,17.8828 Q477.0138,17.8828 477.6612,18.0322 Q478.3087,18.1816 478.8731,18.4805 L478.8731,21.2031 Q478.2423,20.6221 477.6488,20.3523 Q477.0553,20.0825 476.4244,20.0825 Q475.0797,20.0825 474.3949,21.1492 Q473.7101,22.2158 473.7101,24.3159 Q473.7101,26.4077 474.3949,27.4744 Q475.0797,28.541 476.4244,28.541 Q477.0553,28.541 477.6488,28.2712 Q478.2423,28.0015 478.8731,27.4204 Z "/><text fill="#000000" font-family="sans-serif" font-size="12" lengthAdjust="spacingAndGlyphs" textLength="67" x="493.6" y="29.0352">Siren::Entity</text><line style="stroke: #A80036; stroke-width: 1.5;" x1="445.25" x2="579.25" y1="40.5" y2="40.5"/><text fill="#000000" font-family="sans-serif" font-size="11" lengthAdjust="spacingAndGlyphs" textLength="76" x="450.25" y="55.1348">class : String[]</text><text fill="#000000" font-family="sans-serif" font-size="11" lengthAdjust="spacingAndGlyphs" textLength="61" x="450.25" y="68.0898">title : String</text><text fill="#000000" font-family="sans-serif" font-size="11" lengthAdjust="spacingAndGlyphs" textLength="114" x="450.25" y="81.0449">properties : HashMap</text><text fill="#000000" font-family="sans-serif" font-size="11" lengthAdjust="spacingAndGlyphs" textLength="119" x="450.25" y="94">entities : Siren::Entity[]</text><text fill="#000000" font-family="sans-serif" font-size="11" lengthAdjust="spacingAndGlyphs" textLength="97" x="450.25" y="106.9551">links : Siren::Link[]</text><text fill="#000000" font-family="sans-serif" font-size="11" lengthAdjust="spacingAndGlyphs" textLength="124" x="450.25" y="119.9102">actions : Siren::Action[]</text><line style="stroke: #A80036; stroke-width: 1.5;" x1="445.25" x2="579.25" y1="126.2305" y2="126.2305"/><text fill="#000000" font-family="sans-serif" font-size="11" lengthAdjust="spacingAndGlyphs" textLength="56" x="450.25" y="140.8652">TO_JSON()</text><rect fill="#FEFECE" filter="url(#f1)" height="54.2656" style="stroke: #A80036; stroke-width: 1.5;" width="169" x="198" y="257"/><ellipse cx="213" cy="276.1328" fill="#ADD1B2" rx="11" ry="11" style="stroke: #A80036; stroke-width: 1.0;"/><path d="M215.9731,281.7759 Q215.3921,282.0747 214.7529,282.2241 Q214.1138,282.3735 213.4082,282.3735 Q210.9014,282.3735 209.5815,280.7217 Q208.2617,279.0698 208.2617,275.9487 Q208.2617,272.8193 209.5815,271.1675 Q210.9014,269.5156 213.4082,269.5156 Q214.1138,269.5156 214.7612,269.665 Q215.4087,269.8145 215.9731,270.1133 L215.9731,272.8359 Q215.3423,272.2549 214.7488,271.9851 Q214.1553,271.7153 213.5244,271.7153 Q212.1797,271.7153 211.4949,272.782 Q210.8101,273.8486 210.8101,275.9487 Q210.8101,278.0405 211.4949,279.1072 Q212.1797,280.1738 213.5244,280.1738 Q214.1553,280.1738 214.7488,279.9041 Q215.3423,279.6343 215.9731,279.0532 Z "/><text fill="#000000" font-family="sans-serif" font-size="12" font-style="italic" lengthAdjust="spacingAndGlyphs" textLength="141" x="225" y="273.6016">&lt;&lt;abstract interface&gt;&gt;</text><text fill="#000000" font-family="sans-serif" font-size="12" lengthAdjust="spacingAndGlyphs" textLength="88" x="251.5" y="287.7344">Siren::SubEntity</text><line style="stroke: #A80036; stroke-width: 1.5;" x1="199" x2="366" y1="295.2656" y2="295.2656"/><line style="stroke: #A80036; stroke-width: 1.5;" x1="199" x2="366" y1="303.2656" y2="303.2656"/><rect fill="#FEFECE" filter="url(#f1)" height="99.8203" style="stroke: #A80036; stroke-width: 1.5;" width="151" x="207" y="427"/><ellipse cx="222" cy="443" fill="#ADD1B2" rx="11" ry="11" style="stroke: #A80036; stroke-width: 1.0;"/><path d="M224.9731,448.6431 Q224.3921,448.9419 223.7529,449.0913 Q223.1138,449.2407 222.4082,449.2407 Q219.9014,449.2407 218.5815,447.5889 Q217.2617,445.937 217.2617,442.8159 Q217.2617,439.6865 218.5815,438.0347 Q219.9014,436.3828 222.4082,436.3828 Q223.1138,436.3828 223.7612,436.5322 Q224.4087,436.6816 224.9731,436.9805 L224.9731,439.7031 Q224.3423,439.1221 223.7488,438.8523 Q223.1553,438.5825 222.5244,438.5825 Q221.1797,438.5825 220.4949,439.6492 Q219.8101,440.7158 219.8101,442.8159 Q219.8101,444.9077 220.4949,445.9744 Q221.1797,447.041 222.5244,447.041 Q223.1553,447.041 223.7488,446.7712 Q224.3423,446.5015 224.9731,445.9204 Z "/><text fill="#000000" font-family="sans-serif" font-size="12" lengthAdjust="spacingAndGlyphs" textLength="119" x="236" y="447.5352">Siren::SubEntity::Link</text><line style="stroke: #A80036; stroke-width: 1.5;" x1="208" x2="357" y1="459" y2="459"/><text fill="#000000" font-family="sans-serif" font-size="11" lengthAdjust="spacingAndGlyphs" textLength="63" x="213" y="473.6348">rel : String[]</text><text fill="#000000" font-family="sans-serif" font-size="11" lengthAdjust="spacingAndGlyphs" textLength="74" x="213" y="486.5898">href :  String[]</text><text fill="#000000" font-family="sans-serif" font-size="11" lengthAdjust="spacingAndGlyphs" textLength="72" x="213" y="499.5449">type : String[]</text><line style="stroke: #A80036; stroke-width: 1.5;" x1="208" x2="357" y1="505.8652" y2="505.8652"/><text fill="#000000" font-family="sans-serif" font-size="11" lengthAdjust="spacingAndGlyphs" textLength="56" x="213" y="520.5">TO_JSON()</text><rect fill="#FEFECE" filter="url(#f1)" height="73.9102" style="stroke: #A80036; stroke-width: 1.5;" width="215" x="559" y="440"/><ellipse cx="574" cy="456" fill="#ADD1B2" rx="11" ry="11" style="stroke: #A80036; stroke-width: 1.0;"/><path d="M576.9731,461.6431 Q576.3921,461.9419 575.7529,462.0913 Q575.1138,462.2407 574.4082,462.2407 Q571.9014,462.2407 570.5815,460.5889 Q569.2617,458.937 569.2617,455.8159 Q569.2617,452.6865 570.5815,451.0347 Q571.9014,449.3828 574.4082,449.3828 Q575.1138,449.3828 575.7612,449.5322 Q576.4087,449.6816 576.9731,449.9805 L576.9731,452.7031 Q576.3423,452.1221 575.7488,451.8523 Q575.1553,451.5825 574.5244,451.5825 Q573.1797,451.5825 572.4949,452.6492 Q571.8101,453.7158 571.8101,455.8159 Q571.8101,457.9077 572.4949,458.9744 Q573.1797,460.041 574.5244,460.041 Q575.1553,460.041 575.7488,459.7712 Q576.3423,459.5015 576.9731,458.9204 Z "/><text fill="#000000" font-family="sans-serif" font-size="12" lengthAdjust="spacingAndGlyphs" textLength="183" x="588" y="460.5352">Siren::SubEntity::Representation</text><line style="stroke: #A80036; stroke-width: 1.5;" x1="560" x2="773" y1="472" y2="472"/><text fill="#000000" font-family="sans-serif" font-size="11" lengthAdjust="spacingAndGlyphs" textLength="63" x="565" y="486.6348">rel : String[]</text><line style="stroke: #A80036; stroke-width: 1.5;" x1="560" x2="773" y1="492.9551" y2="492.9551"/><text fill="#000000" font-family="sans-serif" font-size="11" lengthAdjust="spacingAndGlyphs" textLength="56" x="565" y="507.5898">TO_JSON()</text><rect fill="#FEFECE" filter="url(#f1)" height="151.6406" style="stroke: #A80036; stroke-width: 1.5;" width="157" x="6" y="208"/><ellipse cx="45.3" cy="224" fill="#ADD1B2" rx="11" ry="11" style="stroke: #A80036; stroke-width: 1.0;"/><path d="M48.2731,229.6431 Q47.6921,229.9419 47.0529,230.0913 Q46.4138,230.2407 45.7082,230.2407 Q43.2014,230.2407 41.8815,228.5889 Q40.5617,226.937 40.5617,223.8159 Q40.5617,220.6865 41.8815,219.0347 Q43.2014,217.3828 45.7082,217.3828 Q46.4138,217.3828 47.0612,217.5322 Q47.7087,217.6816 48.2731,217.9805 L48.2731,220.7031 Q47.6423,220.1221 47.0488,219.8523 Q46.4553,219.5825 45.8244,219.5825 Q44.4797,219.5825 43.7949,220.6492 Q43.1101,221.7158 43.1101,223.8159 Q43.1101,225.9077 43.7949,226.9744 Q44.4797,228.041 45.8244,228.041 Q46.4553,228.041 47.0488,227.7712 Q47.6423,227.5015 48.2731,226.9204 Z "/><text fill="#000000" font-family="sans-serif" font-size="12" lengthAdjust="spacingAndGlyphs" textLength="71" x="64.7" y="228.5352">Siren::Action</text><line style="stroke: #A80036; stroke-width: 1.5;" x1="7" x2="162" y1="240" y2="240"/><text fill="#000000" font-family="sans-serif" font-size="11" lengthAdjust="spacingAndGlyphs" textLength="70" x="12" y="254.6348">name : String</text><text fill="#000000" font-family="sans-serif" font-size="11" lengthAdjust="spacingAndGlyphs" textLength="76" x="12" y="267.5898">class : String[]</text><text fill="#000000" font-family="sans-serif" font-size="11" lengthAdjust="spacingAndGlyphs" textLength="82" x="12" y="280.5449">method : String</text><text fill="#000000" font-family="sans-serif" font-size="11" lengthAdjust="spacingAndGlyphs" textLength="63" x="12" y="293.5">href : String</text><text fill="#000000" font-family="sans-serif" font-size="11" lengthAdjust="spacingAndGlyphs" textLength="61" x="12" y="306.4551">title : String</text><text fill="#000000" font-family="sans-serif" font-size="11" lengthAdjust="spacingAndGlyphs" textLength="64" x="12" y="319.4102">type : String</text><text fill="#000000" font-family="sans-serif" font-size="11" lengthAdjust="spacingAndGlyphs" textLength="145" x="12" y="332.3652">fields : Siren::Action::Field[]</text><line style="stroke: #A80036; stroke-width: 1.5;" x1="7" x2="162" y1="338.6855" y2="338.6855"/><text fill="#000000" font-family="sans-serif" font-size="11" lengthAdjust="spacingAndGlyphs" textLength="56" x="12" y="353.3203">TO_JSON()</text><rect fill="#FEFECE" filter="url(#f1)" height="112.7754" style="stroke: #A80036; stroke-width: 1.5;" width="138" x="15.25" y="420.5"/><ellipse cx="30.25" cy="436.5" fill="#ADD1B2" rx="11" ry="11" style="stroke: #A80036; stroke-width: 1.0;"/><path d="M33.2231,442.1431 Q32.6421,442.4419 32.0029,442.5913 Q31.3638,442.7407 30.6582,442.7407 Q28.1514,442.7407 26.8315,441.0889 Q25.5117,439.437 25.5117,436.3159 Q25.5117,433.1865 26.8315,431.5347 Q28.1514,429.8828 30.6582,429.8828 Q31.3638,429.8828 32.0112,430.0322 Q32.6587,430.1816 33.2231,430.4805 L33.2231,433.2031 Q32.5923,432.6221 31.9988,432.3523 Q31.4053,432.0825 30.7744,432.0825 Q29.4297,432.0825 28.7449,433.1492 Q28.0601,434.2158 28.0601,436.3159 Q28.0601,438.4077 28.7449,439.4744 Q29.4297,440.541 30.7744,440.541 Q31.4053,440.541 31.9988,440.2712 Q32.5923,440.0015 33.2231,439.4204 Z "/><text fill="#000000" font-family="sans-serif" font-size="12" lengthAdjust="spacingAndGlyphs" textLength="106" x="44.25" y="441.0352">Siren::Action::Field</text><line style="stroke: #A80036; stroke-width: 1.5;" x1="16.25" x2="152.25" y1="452.5" y2="452.5"/><text fill="#000000" font-family="sans-serif" font-size="11" lengthAdjust="spacingAndGlyphs" textLength="70" x="21.25" y="467.1348">name : String</text><text fill="#000000" font-family="sans-serif" font-size="11" lengthAdjust="spacingAndGlyphs" textLength="61" x="21.25" y="480.0898">title : String</text><text fill="#000000" font-family="sans-serif" font-size="11" lengthAdjust="spacingAndGlyphs" textLength="64" x="21.25" y="493.0449">type : String</text><text fill="#000000" font-family="sans-serif" font-size="11" lengthAdjust="spacingAndGlyphs" textLength="69" x="21.25" y="506">value : String</text><line style="stroke: #A80036; stroke-width: 1.5;" x1="16.25" x2="152.25" y1="512.3203" y2="512.3203"/><text fill="#000000" font-family="sans-serif" font-size="11" lengthAdjust="spacingAndGlyphs" textLength="56" x="21.25" y="526.9551">TO_JSON()</text><rect fill="#FEFECE" filter="url(#f1)" height="112.7754" style="stroke: #A80036; stroke-width: 1.5;" width="91" x="402" y="227.5"/><ellipse cx="417" cy="243.5" fill="#ADD1B2" rx="11" ry="11" style="stroke: #A80036; stroke-width: 1.0;"/><path d="M419.9731,249.1431 Q419.3921,249.4419 418.7529,249.5913 Q418.1138,249.7407 417.4082,249.7407 Q414.9014,249.7407 413.5815,248.0889 Q412.2617,246.437 412.2617,243.3159 Q412.2617,240.1865 413.5815,238.5347 Q414.9014,236.8828 417.4082,236.8828 Q418.1138,236.8828 418.7612,237.0322 Q419.4087,237.1816 419.9731,237.4805 L419.9731,240.2031 Q419.3423,239.6221 418.7488,239.3523 Q418.1553,239.0825 417.5244,239.0825 Q416.1797,239.0825 415.4949,240.1492 Q414.8101,241.2158 414.8101,243.3159 Q414.8101,245.4077 415.4949,246.4744 Q416.1797,247.541 417.5244,247.541 Q418.1553,247.541 418.7488,247.2712 Q419.3423,247.0015 419.9731,246.4204 Z "/><text fill="#000000" font-family="sans-serif" font-size="12" lengthAdjust="spacingAndGlyphs" textLength="59" x="431" y="248.0352">Siren::Link</text><line style="stroke: #A80036; stroke-width: 1.5;" x1="403" x2="492" y1="259.5" y2="259.5"/><text fill="#000000" font-family="sans-serif" font-size="11" lengthAdjust="spacingAndGlyphs" textLength="63" x="408" y="274.1348">href : String</text><text fill="#000000" font-family="sans-serif" font-size="11" lengthAdjust="spacingAndGlyphs" textLength="61" x="408" y="287.0898">title : String</text><text fill="#000000" font-family="sans-serif" font-size="11" lengthAdjust="spacingAndGlyphs" textLength="64" x="408" y="300.0449">type : String</text><text fill="#000000" font-family="sans-serif" font-size="11" lengthAdjust="spacingAndGlyphs" textLength="63" x="408" y="313">rel : String[]</text><line style="stroke: #A80036; stroke-width: 1.5;" x1="403" x2="492" y1="319.3203" y2="319.3203"/><text fill="#000000" font-family="sans-serif" font-size="11" lengthAdjust="spacingAndGlyphs" textLength="56" x="408" y="333.9551">TO_JSON()</text><rect fill="#FEFECE" filter="url(#f1)" height="48" style="stroke: #A80036; stroke-width: 1.5;" width="98" x="528.25" y="260"/><ellipse cx="543.25" cy="276" fill="#ADD1B2" rx="11" ry="11" style="stroke: #A80036; stroke-width: 1.0;"/><path d="M546.2231,281.6431 Q545.6421,281.9419 545.0029,282.0913 Q544.3638,282.2407 543.6582,282.2407 Q541.1514,282.2407 539.8315,280.5889 Q538.5117,278.937 538.5117,275.8159 Q538.5117,272.6865 539.8315,271.0347 Q541.1514,269.3828 543.6582,269.3828 Q544.3638,269.3828 545.0112,269.5322 Q545.6587,269.6816 546.2231,269.9805 L546.2231,272.7031 Q545.5923,272.1221 544.9988,271.8523 Q544.4053,271.5825 543.7744,271.5825 Q542.4297,271.5825 541.7449,272.6492 Q541.0601,273.7158 541.0601,275.8159 Q541.0601,277.9077 541.7449,278.9744 Q542.4297,280.041 543.7744,280.041 Q544.4053,280.041 544.9988,279.7712 Q545.5923,279.5015 546.2231,278.9204 Z "/><text fill="#000000" font-family="sans-serif" font-size="12" lengthAdjust="spacingAndGlyphs" textLength="66" x="557.25" y="280.5352">Siren::Class</text><line style="stroke: #A80036; stroke-width: 1.5;" x1="529.25" x2="625.25" y1="292" y2="292"/><line style="stroke: #A80036; stroke-width: 1.5;" x1="529.25" x2="625.25" y1="300" y2="300"/><rect fill="#FEFECE" filter="url(#f1)" height="48" style="stroke: #A80036; stroke-width: 1.5;" width="117" x="662" y="260"/><ellipse cx="677" cy="276" fill="#ADD1B2" rx="11" ry="11" style="stroke: #A80036; stroke-width: 1.0;"/><path d="M679.9731,281.6431 Q679.3921,281.9419 678.7529,282.0913 Q678.1138,282.2407 677.4082,282.2407 Q674.9014,282.2407 673.5815,280.5889 Q672.2617,278.937 672.2617,275.8159 Q672.2617,272.6865 673.5815,271.0347 Q674.9014,269.3828 677.4082,269.3828 Q678.1138,269.3828 678.7612,269.5322 Q679.4087,269.6816 679.9731,269.9805 L679.9731,272.7031 Q679.3423,272.1221 678.7488,271.8523 Q678.1553,271.5825 677.5244,271.5825 Q676.1797,271.5825 675.4949,272.6492 Q674.8101,273.7158 674.8101,275.8159 Q674.8101,277.9077 675.4949,278.9744 Q676.1797,280.041 677.5244,280.041 Q678.1553,280.041 678.7488,279.7712 Q679.3423,279.5015 679.9731,278.9204 Z "/><text fill="#000000" font-family="sans-serif" font-size="12" lengthAdjust="spacingAndGlyphs" textLength="85" x="691" y="280.5352">Siren::Property</text><line style="stroke: #A80036; stroke-width: 1.5;" x1="663" x2="778" y1="292" y2="292"/><line style="stroke: #A80036; stroke-width: 1.5;" x1="663" x2="778" y1="300" y2="300"/><path d="M444.176,139.379 C401.789,176.974 349.135,223.676 315.604,253.416 " fill="none" style="stroke: #A80036; stroke-width: 1.0;"/><polygon fill="#A80036" points="311.612,256.957,320.9993,253.9774,315.3526,253.6392,315.6908,247.9924,311.612,256.957" style="stroke: #A80036; stroke-width: 1.0;"/><text fill="#000000" font-family="sans-serif" font-size="13" lengthAdjust="spacingAndGlyphs" textLength="22" x="292.1414" y="246.1992">0..*</text><path d="M282.25,311.157 C282.25,339.495 282.25,385.505 282.25,421.724 " fill="none" style="stroke: #A80036; stroke-width: 1.0;"/><polygon fill="#A80036" points="282.25,426.994,286.25,417.994,282.25,421.994,278.25,417.994,282.25,426.994" style="stroke: #A80036; stroke-width: 1.0;"/><text fill="#000000" font-family="sans-serif" font-size="13" lengthAdjust="spacingAndGlyphs" textLength="22" x="257.6805" y="416.0977">0..*</text><path d="M313.505,311.089 C333.029,326.581 359.15,345.89 384.25,360 C438.899,390.722 503.335,417.844 556.808,438.1221 " fill="none" style="stroke: #A80036; stroke-width: 1.0;"/><polygon fill="#A80036" points="561.619,439.9393,554.6135,433.0167,556.9417,438.1722,551.7861,440.5004,561.619,439.9393" style="stroke: #A80036; stroke-width: 1.0;"/><text fill="#000000" font-family="sans-serif" font-size="13" lengthAdjust="spacingAndGlyphs" textLength="22" x="528.9398" y="432.7509">0..*</text><path d="M725.792,439.8661 C752.655,419.995 781.597,392.712 796.25,360 C823.866,298.347 832.831,264.794 796.25,208 C753.332,141.367 666.659,108.759 600.291,93.051 " fill="none" style="stroke: #A80036; stroke-width: 1.0;"/><polygon fill="none" points="598.457,99.815,580.417,88.7,601.451,86.139,598.457,99.815" style="stroke: #A80036; stroke-width: 1.0;"/><path d="M444.136,98.986 C375.124,120.7 266.532,158.953 180.25,208 C175.837,210.508 171.408,213.206 167.004,216.035 " fill="none" style="stroke: #A80036; stroke-width: 1.0;"/><polygon fill="#A80036" points="162.611,218.905,172.333,217.3294,166.7964,216.1695,167.9563,210.6329,162.611,218.905" style="stroke: #A80036; stroke-width: 1.0;"/><text fill="#000000" font-family="sans-serif" font-size="13" lengthAdjust="spacingAndGlyphs" textLength="22" x="171.1044" y="208.4908">0..*</text><path d="M534.165,147.781 C545.823,184.369 559.521,227.358 568.289,254.875 " fill="none" style="stroke: #A80036; stroke-width: 1.0;"/><polygon fill="#A80036" points="569.867,259.828,570.9476,250.0386,568.3499,255.0637,563.3247,252.466,569.867,259.828" style="stroke: #A80036; stroke-width: 1.0;"/><text fill="#000000" font-family="sans-serif" font-size="13" lengthAdjust="spacingAndGlyphs" textLength="22" x="542.627" y="249.2833">0..*</text><path d="M580.482,145.558 C601.002,165.607 623.56,187.681 644.25,208 C660.588,224.045 678.855,242.069 693.385,256.426 " fill="none" style="stroke: #A80036; stroke-width: 1.0;"/><polygon fill="#A80036" points="696.995,259.993,693.4057,250.8215,693.4388,256.4782,687.7821,256.5114,696.995,259.993" style="stroke: #A80036; stroke-width: 1.0;"/><text fill="#000000" font-family="sans-serif" font-size="13" lengthAdjust="spacingAndGlyphs" textLength="22" x="665.7845" y="249.08">0..*</text><path d="M84.25,360.214 C84.25,378.378 84.25,397.569 84.25,414.991 " fill="none" style="stroke: #A80036; stroke-width: 1.0;"/><polygon fill="#A80036" points="84.25,420.338,88.25,411.338,84.25,415.338,80.25,411.338,84.25,420.338" style="stroke: #A80036; stroke-width: 1.0;"/><text fill="#000000" font-family="sans-serif" font-size="13" lengthAdjust="spacingAndGlyphs" textLength="22" x="59.9375" y="409.8085">0..*</text><path d="M490.335,147.781 C482.627,171.97 474.028,198.958 466.552,222.423 " fill="none" style="stroke: #A80036; stroke-width: 1.0;"/><polygon fill="#A80036" points="464.974,227.374,471.5169,220.0126,466.4916,222.6099,463.8943,217.5845,464.974,227.374" style="stroke: #A80036; stroke-width: 1.0;"/><text fill="#000000" font-family="sans-serif" font-size="13" lengthAdjust="spacingAndGlyphs" textLength="22" x="442.5727" y="216.8485">0..*</text></g></svg>